<svg version="1.2" xmlns="http://www.w3.org/2000/svg" viewBox="0 0 1196 349" width="1197" height="349">
	<title>Neues Projekt</title>
	<style>
		.s0 { fill: #000000;stroke: #0000ff;stroke-miterlimit:100 } 
		.s1 { fill: #a9a9a9;stroke: #0000ff;stroke-miterlimit:100 } 
	</style>
	<path id="Surfalize copy" fill-rule="evenodd" class="s0" d="m219.8 210.4c0 21.8 9.9 24 18.4 24 16.9 0 40.6-19.6 45-52.1l0.8-6.3q14.1-4.9 28.6-9.5l-6.3 46.1c-0.9 6.5-1.6 10.9-1.6 14.3 0 4.1 1 7.2 4.1 7.2 4 0 7.5-3.4 10.6-9.3l7.2 3.4c-8.1 15.9-19.7 19-30.9 19-11.9 0-18.8-5.9-18.8-17.1 0-2.9 0.6-6.9 1.3-10.3-12.8 17.4-32.5 27.4-52.8 27.4-19.4 0-33.5-8.4-33.5-33.4q0-0.4 0.1-0.8 13.8-6.3 28.5-12.5c-0.4 3.5-0.7 6.9-0.7 9.9zm174.3-41.6l-11 76.3-27.4 2.1 0.6-7.5 12.8-88.9q16-3.8 32.5-7.1c-3.5 7.2-6.1 15.7-7.5 25.1zm96.5-36.2q0.1-0.4 0.1-0.8 13.6-0.9 27.3-1.3l-28.6 198.6-25 10.6-2.2-8.7zm165.6 35.9v-14.1q0-6.1-0.5-11 7.9 1.7 15.9 3.7 7 1.8 13.9 3.5 0 1.1 0 2.3v71.5c0 10.3 1.9 12.5 12.2 12.5h10.9v8.1c-22.1 0-39 1-51.5 2.2l-0.9-8.7v-3.1c-22.8 9-40 11.8-54.4 11.8-27.8 0-36.6-19.3-36.6-30.9 0-34.1 47.5-47.8 91-47.8zm-68.5-21.6c-7.1-1.5-15.3-5.6-15.3-10.6q0-2.4 0.8-4.7 9.9 0.7 19.9 1.7zm29.6 88.1c9.7 0 18.8-0.9 38.8-8.7v-49.4c-21.9 0-62.2 5-62.2 36.3 0 11.2 5.6 21.8 23.4 21.8zm155.9-10.6c0 10.3 1.9 12.5 12.2 12.5h10.9v8.1h-66.8v-8.1h14.4v-72.5q14.7 3.3 29.3 6.3zm87.8 0c0 10.3 1.9 12.5 12.2 12.5h10.9v8.1h-66.8v-8.1h14.3v-55.7q14.8 2.3 29.4 4.1zm44.1 12.5l29.9-45.5q16.2 0.6 32.4 0.4l-29.2 45.1h65.9l12.2-33.4h8.1v41.5h-119.3zm276.8-77.8c0 5.3-0.7 10.6-1.6 15.6-13.1 1.3-23.7 2.2-46.9 2.2h-34.4q16.7-3.7 33.6-8.4h0.8c7.8 0 14.1-0.3 19.1-0.6 0.4-1.9 0.7-3.7 0.9-5.6q14-4.4 28.2-9.5 0.3 3.1 0.3 6.3zm-55.3 75.9c19.3 0 32.5-5.3 44-15.9l5.9 6.3c-16.5 17.1-36.5 21.8-53.1 21.8-39 0-66.9-27.3-71.5-61.7q14.7-2.1 29.5-4.9c1.8 28.8 18.2 54.4 45.2 54.4z"/>
	<path id="Surfalize copy 2" fill-rule="evenodd" class="s1" d="m20.1 189.8h7.8l6.6 31.8c10 10.6 23.7 17.2 41.9 17.2 27.8 0 48.1-24.7 48.1-54 0-49.4-85-33.5-85-94.1 0-45 35.6-67.8 69.7-67.8 14.6 0 26.2 2.2 37.8 6.9l9.3-4.1h7.8l-8.1 55.3h-7.5l-8.7-41.8c-8.5-4.7-18.5-7.2-30.3-7.2-22.8 0-42.2 20-42.2 48.1 0 49.7 85.3 34.4 85.3 95.6 0 56.5-50.3 72.5-76.2 72.5-16.3 0-28.8-3.1-41.3-9.4l-15 6.3h-8.1zm166.2-81.9c19.7 0 35.9-0.9 47.2-2.2l-0.6 8.8-10.9 75.3q-15.1 6.3-29.4 12.7 0.2-2.1 0.6-4.3l9.3-66.9c0.7-3.4 1-6.5 1-8.4 0-5-2.2-6.2-9.4-6.2h-9.4zm107.2 0l26.9-2.2-0.7 8.7-5.7 42q-14.5 4.4-28.5 9.2zm62.2 0c19.6 0 35.6-0.9 46.8-2.2l-0.6 8.8-2.2 14.7c10-15 24.4-25.3 43.7-25.3 8.2 0 12.2 3.1 12.2 7.5 0 5.8-2.7 11.3-5.6 15.6q-1 0.1-2 0.2l-19.2-9.9c-7.8 2.4-15.1 8-21.1 16.1q-18.9 3.5-37.2 7.8l1.4-9.8c0.6-3.5 0.9-6.6 0.9-8.5 0-5-2.1-6.2-9.3-6.2h-9.4zm135.9 15c0-5-2.5-6.3-9.7-6.3h-9.4l1.3-8.7h20.3l3.7-25.3c5.3-40 34.1-70.6 69.1-70.6 13.4 0 24 3.4 24 8.1 0 5.6-3.4 11.5-6.2 15.9l-29.1-14.7c-10 2.9-23.4 9.7-28.7 46.6l-5.6 40c17.2 0 26.2-1 37.8-2.2l-0.7 8.7-0.3 2.2h-38.1l-0.8 5.5q-13.9 0.2-27.6 1 0-0.1 0-0.2zm135.3-6.9c-8.2 0-15.7 0.6-29.1 5.3l-1.7 4.5q-9.1-1.1-18.1-1.8c12.9-13.4 45.1-20.2 64.5-20.2 25.2 0 40.2 9.8 42.7 39.5q-8.8-2.2-17.7-4.5-6.5-1.6-12.9-3.1c-3.9-17.4-14.1-19.7-27.7-19.7zm94.6-98.7c16 0 36.6-0.6 48.1-5.3l3.8 8.7v142.5q-14.6-2.9-29.4-6.2v-118.8c0-10.3-1.9-12.5-12.2-12.5h-10.3zm87.8 90.6c22.2 0 38.4-0.9 50.9-2.2l1 8.8v63q-14.7-1.7-29.4-4v-44.3c0-10.4-1.9-12.5-12.2-12.5h-10.3zm37.2-24.7c-8.5 0-15.3-6.9-15.3-15.5 0-8.5 6.8-15.4 15.3-15.4 8.5 0 15.3 6.9 15.3 15.4 0 8.6-6.8 15.5-15.3 15.5zm137.8 33.4h-51.3l-11.5 30.3h-8.2v-39h103.1v8.7l-43.3 66.7q-16.3 0.4-32.7 0zm139.3-12.8c30.7 0 50.5 16.6 56.5 39.7q-13.2 4.9-26.2 9.1c-0.6-18.9-9.5-39.7-30.3-39.7-27.1 0-40.3 25.9-41.8 55.6h13.7q-22.2 4.9-44 8.1 0-0.6 0-1.2c0-41.3 28.7-71.6 72.1-71.6z"/>
</svg>